<svg id="Group_118" data-name="Group 118" xmlns="http://www.w3.org/2000/svg" width="21.617" height="23" viewBox="0 0 21.617 23">
  <path id="Path_3272" data-name="Path 3272" d="M35.728,7.375a.958.958,0,0,0-1.355,0L22.853,18.961a3.833,3.833,0,0,1-5.419-5.423L29.295,1.614A2.4,2.4,0,0,1,32.681,5L22.854,14.83l0,0A.958.958,0,0,1,21.5,13.476l4.743-4.744a.958.958,0,1,0-1.355-1.355L20.144,12.12a2.875,2.875,0,0,0,4.066,4.065l0,0L34.036,6.36a4.312,4.312,0,0,0-6.1-6.1L16.076,12.184a5.75,5.75,0,0,0,8.134,8.13L35.732,8.73A.958.958,0,0,0,35.728,7.375Z" transform="translate(-14.394 1.002)" fill="#003197"/>
</svg>
