<?xml version="1.0" encoding="UTF-8"?>
<svg width="700pt" height="700pt" version="1.1" viewBox="0 0 700 700" xmlns="http://www.w3.org/2000/svg">
 <path d="m474.93 171.59-108.43 108.41 108.43 108.41c4.5625 4.5625 4.5625 11.957 0 16.52s-11.957 4.5625-16.52 0l-108.41-108.43-108.41 108.43c-4.5625 4.5625-11.957 4.5625-16.52 0s-4.5625-11.957 0-16.52l108.43-108.41-108.43-108.41c-4.5625-4.5625-4.5625-11.957 0-16.52s11.957-4.5625 16.52 0l108.41 108.43 108.41-108.43c4.5625-4.5625 11.957-4.5625 16.52 0s4.5625 11.957 0 16.52z"/>
</svg>
