<svg xmlns="http://www.w3.org/2000/svg" width="119.999" height="120" viewBox="0 0 119.999 120">
  <g id="Logo" transform="translate(-29.062 -59.996)">
    <g id="Logo-2" data-name="Logo" transform="translate(29.061 59.996)">
      <path id="Path_2130" data-name="Path 2130" d="M12616.765,7727.4l24.631-24.623v-11.128h11.115l4.074-4.072-19.664-19.666h-19.254v25.03l-17.693,17.682Z" transform="translate(-12599.974 -7650.213)" fill="#003197" fill-rule="evenodd"/>
      <path id="Path_2131" data-name="Path 2131" d="M14264.733,7065.507l19.662-19.663V7026.59h-25.043l-17.668-17.693-16.781,16.776,24.633,24.646h11.133v11.126Z" transform="translate(-14182.1 -7008.896)" fill="#aba17d" fill-rule="evenodd"/>
      <path id="Path_2132" data-name="Path 2132" d="M13318.561,9440.119l-24.639-24.637H13282.8v-11.135l-4.074-4.055-19.662,19.664v19.254h25.018l17.7,17.691Z" transform="translate(-13241.381 -9336.902)" fill="#0056ff" fill-rule="evenodd"/>
      <path id="Path_2133" data-name="Path 2133" d="M15011.035,8693.6h19.252v-25.043l17.691-17.664-16.783-16.775-24.639,24.627v11.131h-11.125l-4.061,4.072Z" transform="translate(-14927.979 -8591.292)" fill="#003197" fill-rule="evenodd"/>
    </g>
  </g>
</svg>
