<svg id="Иконка_Стиль_2_" data-name="Иконка (Стиль 2)" xmlns="http://www.w3.org/2000/svg" width="40" height="40" viewBox="0 0 40 40">
  <path id="Иконка_Стиль_2_2" data-name="Иконка (Стиль 2)" d="M-177-64a2,2,0,0,1-2-2v-6a2,2,0,0,1,2-2h22a2,2,0,0,1,2,2v6a2,2,0,0,1-2,2Zm-14,0a2,2,0,0,1-2-2v-6a2,2,0,0,1,2-2h6a2,2,0,0,1,2,2v6a2,2,0,0,1-2,2Zm14-15a2,2,0,0,1-2-2v-6a2,2,0,0,1,2-2h22a2,2,0,0,1,2,2v6a2,2,0,0,1-2,2Zm-14,0a2,2,0,0,1-2-2v-6a2,2,0,0,1,2-2h6a2,2,0,0,1,2,2v6a2,2,0,0,1-2,2Zm14-15a2,2,0,0,1-2-2v-6a2,2,0,0,1,2-2h22a2,2,0,0,1,2,2v6a2,2,0,0,1-2,2Zm-14,0a2,2,0,0,1-2-2v-6a2,2,0,0,1,2-2h6a2,2,0,0,1,2,2v6a2,2,0,0,1-2,2Z" transform="translate(193 104)" fill="#003197" opacity="0.5"/>
</svg>
