<svg xmlns="http://www.w3.org/2000/svg" width="40" height="40" viewBox="0 0 40 40">
  <g id="Group_3" data-name="Group 3" transform="translate(-650 -482)">
    <rect id="Rectangle_143" data-name="Rectangle 143" width="40" height="40" rx="5" transform="translate(650 482)" fill="#003197"/>
    <g id="user" transform="translate(660.629 490.768)">
      <path id="Path_3281" data-name="Path 3281" d="M92.442,10.821a5.235,5.235,0,0,0,3.826-1.585A5.236,5.236,0,0,0,97.853,5.41a5.236,5.236,0,0,0-1.585-3.825,5.409,5.409,0,0,0-7.651,0A5.235,5.235,0,0,0,87.032,5.41a5.236,5.236,0,0,0,1.585,3.826A5.237,5.237,0,0,0,92.442,10.821ZM89.548,2.516a4.093,4.093,0,0,1,5.789,0,3.912,3.912,0,0,1,1.2,2.895,3.911,3.911,0,0,1-1.2,2.895,4.092,4.092,0,0,1-5.789,0,3.911,3.911,0,0,1-1.2-2.895,3.911,3.911,0,0,1,1.2-2.895Zm0,0" transform="translate(-83.213 0)" fill="#fff"/>
      <path id="Path_3282" data-name="Path 3282" d="M18.7,253.739a13.364,13.364,0,0,0-.182-1.419,11.184,11.184,0,0,0-.349-1.427,7.05,7.05,0,0,0-.587-1.331,5.018,5.018,0,0,0-.885-1.153,3.9,3.9,0,0,0-1.271-.8,4.392,4.392,0,0,0-1.622-.294,1.647,1.647,0,0,0-.879.373c-.264.172-.572.371-.916.591a5.249,5.249,0,0,1-1.185.522,4.6,4.6,0,0,1-2.9,0,5.232,5.232,0,0,1-1.184-.522c-.341-.218-.649-.417-.917-.591a1.645,1.645,0,0,0-.879-.373,4.386,4.386,0,0,0-1.622.294,3.9,3.9,0,0,0-1.271.8,5.018,5.018,0,0,0-.884,1.153,7.063,7.063,0,0,0-.587,1.331,11.209,11.209,0,0,0-.349,1.427,13.273,13.273,0,0,0-.182,1.42c-.03.429-.045.875-.045,1.327a3.73,3.73,0,0,0,1.108,2.822,3.988,3.988,0,0,0,2.855,1.041H14.779a3.988,3.988,0,0,0,2.855-1.041,3.729,3.729,0,0,0,1.108-2.822c0-.453-.015-.9-.045-1.327Zm-1.97,3.2a2.685,2.685,0,0,1-1.947.678H3.962a2.685,2.685,0,0,1-1.947-.678,2.436,2.436,0,0,1-.7-1.868c0-.421.014-.837.042-1.236a11.972,11.972,0,0,1,.165-1.278,9.886,9.886,0,0,1,.307-1.258,5.75,5.75,0,0,1,.477-1.082,3.72,3.72,0,0,1,.65-.852,2.588,2.588,0,0,1,.845-.526,3.029,3.029,0,0,1,1.037-.2c.046.025.128.071.261.158.271.176.583.378.927.6a6.522,6.522,0,0,0,1.488.665,5.918,5.918,0,0,0,3.709,0,6.529,6.529,0,0,0,1.489-.665c.353-.226.656-.421.927-.6.133-.087.215-.134.261-.158a3.031,3.031,0,0,1,1.037.2,2.591,2.591,0,0,1,.845.526,3.71,3.71,0,0,1,.65.852,5.73,5.73,0,0,1,.478,1.082,9.863,9.863,0,0,1,.307,1.258,12.071,12.071,0,0,1,.165,1.279h0c.028.4.042.813.042,1.235a2.436,2.436,0,0,1-.7,1.868Zm0,0" transform="translate(0 -236.465)" fill="#fff"/>
    </g>
  </g>
</svg>
