<svg width="61" height="61" viewBox="0 0 61 61" fill="none" xmlns="http://www.w3.org/2000/svg">
<path d="M30.3 0.300049C13.7152 0.300049 0.299988 13.7153 0.299988 30.3001C0.299988 46.8848 13.7152 60.3 30.3 60.3C46.8848 60.3 60.3 46.8848 60.3 30.3001C60.3 13.7153 46.8848 0.300049 30.3 0.300049ZM30.3 57.4254C15.3368 57.4254 3.17468 45.2632 3.17468 30.3001C3.17468 15.3369 15.3368 3.17474 30.3 3.17474C45.2631 3.17474 57.4253 15.3369 57.4253 30.3001C57.4253 45.2632 45.2631 57.4254 30.3 57.4254Z" fill="#003197"/>
<path d="M37.671 30.0789C38.9978 28.4573 39.7349 26.3934 39.7349 24.1821C39.7349 18.9487 35.4597 14.7472 30.3 14.7472C25.0666 14.7472 20.8651 19.0224 20.8651 24.1821C20.8651 26.3934 21.6759 28.4573 22.929 30.0789C18.2853 32.9536 15.1157 37.7447 14.4523 43.1993L17.2533 43.5678C17.843 38.7767 20.8651 34.4278 25.0666 32.0691C26.5408 33.0273 28.3098 33.617 30.2263 33.617C32.1428 33.617 33.9118 33.0273 35.386 32.0691C39.6612 34.4278 42.6096 38.7767 43.1993 43.5678L46.0002 43.1993C45.4843 37.7447 42.3147 32.9536 37.671 30.0789ZM23.7398 24.1821C23.7398 20.5703 26.6882 17.6219 30.3 17.6219C33.9118 17.6219 36.8602 20.5703 36.8602 24.1821C36.8602 27.7939 33.9118 30.7423 30.3 30.7423C26.6882 30.7423 23.7398 27.7939 23.7398 24.1821Z" fill="#003197"/>
</svg>
