<svg xmlns="http://www.w3.org/2000/svg" width="18" height="18" viewBox="0 0 18 18">
  <g id="coins" transform="translate(0 0)">
    <g id="Group_433" data-name="Group 433" transform="translate(0 0)">
      <path id="Path_987" data-name="Path 987" d="M10.636,3.419v-1.4C10.636-.673,0-.673,0,2.017v8.2c0,1.058,1.655,1.717,3.647,1.951-.728.327-1.192.768-1.192,1.327v2.459C2.455,17.3,5.13,18,7.773,18s5.318-.7,5.318-2.049V14.715c2.5-.069,4.909-.767,4.909-2.042V5.3C18,3.6,13.762,2.973,10.636,3.419ZM5.318.818c2.912,0,4.5.811,4.5,1.227S8.23,3.272,5.318,3.272s-4.5-.811-4.5-1.227S2.407.818,5.318.818ZM.818,3.184a9.6,9.6,0,0,0,4.5.907,9.6,9.6,0,0,0,4.5-.907V3.59c-1.422.315-2.455.891-2.455,1.728V5.56a12.976,12.976,0,0,1-2.045.167c-2.912,0-4.5-.811-4.5-1.227V3.184Zm7.364,8.182c.078.047.159.092.246.136l-.246-.009ZM.818,5.638a9.6,9.6,0,0,0,4.5.907,13.868,13.868,0,0,0,2.045-.161V8.424a12.976,12.976,0,0,1-2.045.167c-2.912,0-4.5-.811-4.5-1.227V5.638Zm0,4.589V8.5a9.6,9.6,0,0,0,4.5.907,13.868,13.868,0,0,0,2.045-.161v2.039a12.976,12.976,0,0,1-2.045.167C2.407,11.454.818,10.644.818,10.227Zm11.455,5.727c0,.417-1.588,1.227-4.5,1.227s-4.5-.811-4.5-1.227V14.638a9.6,9.6,0,0,0,4.5.907,10.007,10.007,0,0,0,4.371-.831l.129,0v1.237Zm-4.5-1.227c-2.912,0-4.5-.811-4.5-1.227s1.588-1.227,4.5-1.227,4.5.811,4.5,1.227S10.684,14.727,7.773,14.727Zm9.409-2.045c0,.4-1.45,1.139-4.091,1.213V13.5c0-.511-.387-.924-1.011-1.241.2.008.4.014.6.014a9.6,9.6,0,0,0,4.5-.907v1.316Zm0-2.455c0,.417-1.588,1.227-4.5,1.227s-4.5-.811-4.5-1.227V8.911a9.6,9.6,0,0,0,4.5.907,9.6,9.6,0,0,0,4.5-.907Zm0-2.455c0,.417-1.588,1.227-4.5,1.227s-4.5-.811-4.5-1.227V6.456a9.6,9.6,0,0,0,4.5.907,9.6,9.6,0,0,0,4.5-.907Zm-4.5-1.227c-2.912,0-4.5-.811-4.5-1.227s1.588-1.227,4.5-1.227,4.5.811,4.5,1.227S15.593,6.545,12.682,6.545Z" transform="translate(0 0)" fill="#003197"/>
    </g>
  </g>
</svg>
