<svg xmlns="http://www.w3.org/2000/svg" width="19.407" height="24.001" viewBox="0 0 19.407 24.001">
	<g id="garbage-can_1_" data-name="garbage-can (1)" transform="translate(-49)">
		<path id="Path_3275" data-name="Path 3275" d="M63.954,3.047H63.09A3.733,3.733,0,0,0,59.453,0h-1.5a3.734,3.734,0,0,0-3.637,3.047h-.863A4.458,4.458,0,0,0,49,7.5a.7.7,0,0,0,.7.7h1.22l.985,13.838a2.117,2.117,0,0,0,2.1,1.96h9.381a2.117,2.117,0,0,0,2.1-1.96L66.483,8.2H67.7a.7.7,0,0,0,.7-.7,4.458,4.458,0,0,0-4.453-4.453Zm-6-1.641h1.5a2.307,2.307,0,0,1,2.191,1.641H55.762A2.307,2.307,0,0,1,57.953,1.406ZM64.1,21.941a.706.706,0,0,1-.7.653H54.013a.706.706,0,0,1-.7-.653L52.333,8.2h12.74ZM50.488,6.8a3.052,3.052,0,0,1,2.965-2.344h10.5A3.052,3.052,0,0,1,66.919,6.8H50.488Z" fill="red" />
		<path id="Path_3276" data-name="Path 3276" d="M289.668,249.9a.7.7,0,0,0,.737-.667l.375-7.5a.7.7,0,1,0-1.4-.07l-.375,7.5A.7.7,0,0,0,289.668,249.9Z" transform="translate(-228.75 -229.702)" fill="red" />
		<path id="Path_3277" data-name="Path 3277" d="M186.077,249.906a.7.7,0,0,0,.7-.738l-.375-7.5a.7.7,0,1,0-1.4.07l.375,7.5A.7.7,0,0,0,186.077,249.906Z" transform="translate(-129.625 -229.703)" fill="red" />
	</g>
</svg>
