<svg xmlns="http://www.w3.org/2000/svg" width="16" height="16" viewBox="0 0 16 16">
  <path id="phone-call" d="M18.111,13.744v2.409a1.608,1.608,0,0,1-1.754,1.606,15.941,15.941,0,0,1-6.943-2.465,15.672,15.672,0,0,1-4.827-4.817,15.869,15.869,0,0,1-2.47-6.961,1.607,1.607,0,0,1,1.6-1.75H6.133A1.608,1.608,0,0,1,7.742,3.145,10.292,10.292,0,0,0,8.3,5.4,1.6,1.6,0,0,1,7.943,7.1L6.921,8.115a12.859,12.859,0,0,0,4.827,4.817l1.022-1.02a1.611,1.611,0,0,1,1.7-.361,10.346,10.346,0,0,0,2.261.562A1.607,1.607,0,0,1,18.111,13.744Z" transform="translate(-2.112 -1.764)" fill="#003197"/>
</svg>
