<svg id="x-mark" xmlns="http://www.w3.org/2000/svg" width="19" height="19" viewBox="0 0 19 19">
  <path id="Path_18" data-name="Path 18" d="M9.5,19A9.5,9.5,0,1,1,19,9.5,9.511,9.511,0,0,1,9.5,19Zm0-17.643A8.143,8.143,0,1,0,17.643,9.5,8.152,8.152,0,0,0,9.5,1.357Zm0,0" fill="red"/>
  <path id="Path_19" data-name="Path 19" d="M153.751,154.431a.676.676,0,0,1-.48-.2l-6.786-6.786a.678.678,0,0,1,.959-.959l6.786,6.786a.679.679,0,0,1-.48,1.158Zm0,0" transform="translate(-140.858 -140.86)" fill="red"/>
  <path id="Path_20" data-name="Path 20" d="M146.964,154.43a.679.679,0,0,1-.48-1.158l6.786-6.786a.678.678,0,0,1,.959.959l-6.786,6.786A.676.676,0,0,1,146.964,154.43Zm0,0" transform="translate(-140.857 -140.858)" fill="red"/>
</svg>
